<svg width="24" height="24" viewBox="0 0 24 24" fill="none" xmlns="http://www.w3.org/2000/svg">
<path d="M2 4C2 2.89543 2.89546 2 4.00008 2C5.10469 2 6.00015 2.89543 6.00015 4C6.00015 5.10457 5.10469 6 4.00008 6C2.89546 6 2 5.10457 2 4Z" stroke="#2F57E2" stroke-width="1.5"/>
<path d="M2 12C2 10.8954 2.89546 10 4.00008 10C5.10469 10 6.00015 10.8954 6.00015 12C6.00015 13.1046 5.10469 14 4.00008 14C2.89546 14 2 13.1046 2 12Z" stroke="#2F57E2" stroke-width="1.5"/>
<path d="M10.0003 10.25C10.0003 10.1119 10.1122 10 10.2503 10H21.7508C21.8888 10 22.0008 10.1119 22.0008 10.25V13.75C22.0008 13.8881 21.8888 14 21.7508 14H10.2503C10.1122 14 10.0003 13.8881 10.0003 13.75V10.25Z" stroke="#2F57E2" stroke-width="1.5"/>
<path d="M10.0003 2.25C10.0003 2.11193 10.1122 2 10.2503 2H21.7508C21.8888 2 22.0008 2.11193 22.0008 2.25V5.75C22.0008 5.88807 21.8888 6 21.7508 6H10.2503C10.1122 6 10.0003 5.88807 10.0003 5.75V2.25Z" stroke="#2F57E2" stroke-width="1.5"/>
<path d="M10.0003 18.25C10.0003 18.1119 10.1122 18 10.2503 18H21.7508C21.8888 18 22.0008 18.1119 22.0008 18.25V21.75C22.0008 21.8881 21.8888 22 21.7508 22H10.2503C10.1122 22 10.0003 21.8881 10.0003 21.75V18.25Z" stroke="#2F57E2" stroke-width="1.5"/>
<path d="M2 20C2 18.8954 2.89546 18 4.00008 18C5.10469 18 6.00015 18.8954 6.00015 20C6.00015 21.1046 5.10469 22 4.00008 22C2.89546 22 2 21.1046 2 20Z" stroke="#2F57E2" stroke-width="1.5"/>
</svg>
