<svg width="49" height="48" viewBox="0 0 49 48" fill="none" xmlns="http://www.w3.org/2000/svg">
<g clip-path="url(#clip0_27_428)">
<path d="M42.8333 2.01221H5.83333C3.62419 2.01221 1.83333 3.80307 1.83333 6.01221V33.8082C1.83333 36.0174 3.62419 37.8082 5.83333 37.8082H42.8333C45.0425 37.8082 46.8333 36.0174 46.8333 33.8082V6.01221C46.8333 3.80307 45.0425 2.01221 42.8333 2.01221Z" stroke="#2F57E2" stroke-width="3" stroke-linecap="round" stroke-linejoin="round"/>
<path d="M20.2433 37.8062L18.1973 45.9882" stroke="#2F57E2" stroke-width="3" stroke-linecap="round" stroke-linejoin="round"/>
<path d="M18.1973 45.9878H29.4473" stroke="#2F57E2" stroke-width="3" stroke-linecap="round" stroke-linejoin="round"/>
<path d="M28.4253 37.8062L30.4693 45.9882" stroke="#2F57E2" stroke-width="3" stroke-linecap="round" stroke-linejoin="round"/>
<path d="M33.5373 45.9878H15.1293" stroke="#2F57E2" stroke-width="3" stroke-linecap="round" stroke-linejoin="round"/>
<path d="M1.83333 30.624H46.8333" stroke="#2F57E2" stroke-width="3" stroke-linecap="round" stroke-linejoin="round"/>
<path d="M8.20332 10.3062H12.7353" stroke="#2F57E2" stroke-width="3" stroke-linecap="round" stroke-linejoin="round"/>
<path d="M17.2673 10.3062H19.9874" stroke="#2F57E2" stroke-width="3" stroke-linecap="round" stroke-linejoin="round"/>
<path d="M8.20332 16.4199H10.9213" stroke="#2F57E2" stroke-width="3" stroke-linecap="round" stroke-linejoin="round"/>
<path d="M15.4553 16.4199H19.9873" stroke="#2F57E2" stroke-width="3" stroke-linecap="round" stroke-linejoin="round"/>
<path d="M8.20332 22.5342H19.9873" stroke="#2F57E2" stroke-width="3" stroke-linecap="round" stroke-linejoin="round"/>
<path d="M26.3793 2.01221V30.6242" stroke="#2F57E2" stroke-width="3" stroke-linecap="round" stroke-linejoin="round"/>
<path d="M26.3793 24.0338L32.4833 18.0818C33.4791 17.2978 34.7023 16.8576 35.9693 16.8274C37.2365 16.7971 38.4791 17.1783 39.5113 17.9138L46.8333 24.0338" stroke="#2F57E2" stroke-width="3" stroke-linecap="round" stroke-linejoin="round"/>
<path d="M33.5273 11.3062C32.9749 11.3062 32.5273 10.8584 32.5273 10.3062C32.5273 9.75385 32.9749 9.30615 33.5273 9.30615" stroke="#2F57E2" stroke-width="3"/>
<path d="M33.5273 11.3062C34.0795 11.3062 34.5273 10.8584 34.5273 10.3062C34.5273 9.75385 34.0795 9.30615 33.5273 9.30615" stroke="#2F57E2" stroke-width="3"/>
</g>
<defs>
<clipPath id="clip0_27_428">
<rect width="48" height="48" fill="white" transform="translate(0.333328)"/>
</clipPath>
</defs>
</svg>
