<svg width="49" height="48" viewBox="0 0 49 48" fill="none" xmlns="http://www.w3.org/2000/svg">
<g clip-path="url(#clip0_27_492)">
<path fill-rule="evenodd" clip-rule="evenodd" d="M8.83333 5C8.83333 3.06701 10.4003 1.5 12.3333 1.5H36.3333C38.2664 1.5 39.8333 3.06703 39.8333 5V13C39.8333 13.8284 39.1618 14.5 38.3333 14.5C37.5049 14.5 36.8333 13.8284 36.8333 13V5C36.8333 4.72385 36.6095 4.5 36.3333 4.5H12.3333C12.0572 4.5 11.8333 4.72387 11.8333 5V12.8672C11.8333 13.6956 11.1618 14.3672 10.3333 14.3672C9.5049 14.3672 8.83333 13.6956 8.83333 12.8672V5Z" fill="#2F57E2"/>
<path fill-rule="evenodd" clip-rule="evenodd" d="M24.9854 8.66185C25.2422 7.87424 26.0889 7.44395 26.8765 7.70077L45.9085 13.9067C47.7462 14.5059 48.7506 16.4815 48.151 18.3195L43.7622 31.7792C43.5054 32.5668 42.6587 32.9971 41.8711 32.7403C41.0835 32.4834 40.6532 31.6368 40.91 30.8491L45.2988 17.3893L45.2989 17.3891C45.3845 17.1268 45.2412 16.8446 44.9785 16.7589L45.4435 15.3328L44.9785 16.7589L25.9465 10.553C25.1589 10.2961 24.7286 9.44946 24.9854 8.66185Z" fill="#2F57E2"/>
<path fill-rule="evenodd" clip-rule="evenodd" d="M23.0741 6.16532C24.869 5.44774 26.9057 6.32121 27.6232 8.11604L31.3572 17.4565C31.6647 18.2258 31.2904 19.0986 30.5211 19.4062C29.7519 19.7137 28.879 19.3394 28.5715 18.5701L24.8375 9.22963L24.8375 9.22961C24.735 8.97318 24.4441 8.84849 24.1878 8.95095L24.1877 8.95097L3.64814 17.162C3.39173 17.2645 3.26695 17.5555 3.36947 17.8119L7.727 28.712C8.03451 29.4813 7.66022 30.3542 6.89098 30.6617C6.12174 30.9692 5.24886 30.5949 4.94135 29.8257L0.583813 18.9255L1.97664 18.3687L0.58381 18.9255C-0.133721 17.1306 0.739631 15.0939 2.53452 14.3764L23.0741 6.16534C23.0741 6.16533 23.0741 6.16533 23.0741 6.16532Z" fill="#2F57E2"/>
<path fill-rule="evenodd" clip-rule="evenodd" d="M4.83333 20C4.83333 18.067 6.40034 16.5 8.33333 16.5H40.3333C42.2664 16.5 43.8333 18.067 43.8333 20V43C43.8333 44.933 42.2664 46.5 40.3333 46.5H8.33333C6.40036 46.5 4.83333 44.933 4.83333 43V20ZM8.33333 19.5C8.0572 19.5 7.83333 19.7239 7.83333 20V43C7.83333 43.2762 8.05718 43.5 8.33333 43.5H40.3333C40.6095 43.5 40.8333 43.2762 40.8333 43V20C40.8333 19.7238 40.6095 19.5 40.3333 19.5H8.33333Z" fill="#2F57E2"/>
<path fill-rule="evenodd" clip-rule="evenodd" d="M25.8333 26C25.8333 25.1716 26.5049 24.5 27.3333 24.5H35.3333C36.1618 24.5 36.8333 25.1716 36.8333 26C36.8333 26.8284 36.1618 27.5 35.3333 27.5H27.3333C26.5049 27.5 25.8333 26.8284 25.8333 26Z" fill="#2F57E2"/>
<path fill-rule="evenodd" clip-rule="evenodd" d="M25.8333 36C25.8333 35.1716 26.5049 34.5 27.3333 34.5H35.3333C36.1618 34.5 36.8333 35.1716 36.8333 36C36.8333 36.8284 36.1618 37.5 35.3333 37.5H27.3333C26.5049 37.5 25.8333 36.8284 25.8333 36Z" fill="#2F57E2"/>
<path fill-rule="evenodd" clip-rule="evenodd" d="M25.8333 31C25.8333 30.1716 26.5049 29.5 27.3333 29.5H37.3333C38.1618 29.5 38.8333 30.1716 38.8333 31C38.8333 31.8284 38.1618 32.5 37.3333 32.5H27.3333C26.5049 32.5 25.8333 31.8284 25.8333 31Z" fill="#2F57E2"/>
</g>
<defs>
<clipPath id="clip0_27_492">
<rect width="48" height="48" fill="white" transform="translate(0.333328)"/>
</clipPath>
</defs>
</svg>
