<svg width="48" height="48" viewBox="0 0 48 48" fill="none" xmlns="http://www.w3.org/2000/svg">
<g clip-path="url(#clip0_27_366)">
<path fill-rule="evenodd" clip-rule="evenodd" d="M28.6488 22.164C29.3117 21.8751 30.027 21.7261 30.75 21.7261C31.4731 21.7261 32.1884 21.8751 32.8512 22.164C33.5141 22.4528 34.1103 22.8752 34.6026 23.4048C35.0948 23.9344 35.4727 24.5598 35.7124 25.2419C35.9456 25.9054 36.0433 26.6087 36 27.3103V35.0365L42.1239 36.3955C42.124 36.3955 42.1238 36.3955 42.1239 36.3955C43.905 36.7895 45.4818 37.8191 46.5586 39.2916C47.635 40.7637 48.1382 42.5776 47.974 44.3939C47.974 44.3944 47.9741 44.3933 47.974 44.3939L47.7741 46.6335C47.7004 47.4587 46.9718 48.0678 46.1466 47.9942C45.3215 47.9205 44.7123 47.1919 44.786 46.3667L44.986 44.1267C45.0847 43.0366 44.783 41.9459 44.1369 41.0624C43.4908 40.1788 42.5449 39.5611 41.4761 39.3247L34.175 37.7045C33.4885 37.5521 33 36.9433 33 36.2401V27.2601C33 27.2236 33.0013 27.1872 33.004 27.1508C33.0266 26.8409 32.9852 26.5298 32.8822 26.2367C32.7791 25.9436 32.6168 25.6749 32.4053 25.4474C32.1938 25.2198 31.9376 25.0383 31.6528 24.9142C31.368 24.7901 31.0607 24.7261 30.75 24.7261C30.4394 24.7261 30.132 24.7901 29.8472 24.9142C29.5624 25.0383 29.3063 25.2198 29.0947 25.4474C28.8832 25.6749 28.7209 25.9436 28.6179 26.2367C28.5149 26.5298 28.4734 26.841 28.496 27.1508C28.4987 27.1872 28.5 27.2236 28.5 27.2601V43.1601C28.5 43.7265 28.181 44.2447 27.6751 44.4996C27.1693 44.7545 26.5631 44.7028 26.1078 44.3659L23.0905 42.1331C22.7897 41.9038 22.4159 41.7915 22.0386 41.8172C21.6612 41.843 21.306 42.005 21.0392 42.2731C20.7723 42.5412 20.612 42.8971 20.588 43.2746C20.564 43.6521 20.6779 44.0254 20.9087 44.3252L20.9224 44.3431L21.8623 45.6032C22.3577 46.2672 22.221 47.207 21.557 47.7024C20.893 48.1978 19.9531 48.0611 19.4577 47.3971L18.5238 46.1452C17.8545 45.2708 17.5241 44.1834 17.594 43.0841C17.6642 41.9807 18.1329 40.9404 18.9129 40.1567C19.6929 39.3731 20.7311 38.8996 21.8342 38.8242C22.9333 38.7492 24.0224 39.0746 24.9001 39.7401L25.5 40.1841V27.3103C25.4567 26.6087 25.5544 25.9054 25.7876 25.2419C26.0274 24.5598 26.4052 23.9344 26.8975 23.4048C27.3898 22.8752 27.986 22.4528 28.6488 22.164Z" fill="#2F57E2"/>
<path fill-rule="evenodd" clip-rule="evenodd" d="M1.31802 1.31802C2.16193 0.474106 3.30653 0 4.5 0H43.5C44.6935 0 45.8381 0.474107 46.682 1.31802C47.5259 2.16193 48 3.30652 48 4.5V31.5C48 32.3284 47.3284 33 46.5 33C45.6716 33 45 32.3284 45 31.5V4.5C45 4.10218 44.842 3.72065 44.5607 3.43934C44.2794 3.15803 43.8978 3 43.5 3H4.5C4.10218 3 3.72064 3.15804 3.43934 3.43934C3.15804 3.72064 3 4.10218 3 4.5V37.5C3 37.8978 3.15803 38.2794 3.43934 38.5607C3.72065 38.842 4.10218 39 4.5 39H13.5C14.3284 39 15 39.6716 15 40.5C15 41.3284 14.3284 42 13.5 42H4.5C3.30652 42 2.16193 41.5259 1.31802 40.682C0.474107 39.8381 0 38.6935 0 37.5V4.5C0 3.30653 0.474106 2.16193 1.31802 1.31802Z" fill="#2F57E2"/>
<path fill-rule="evenodd" clip-rule="evenodd" d="M0 10.5C0 9.67157 0.671573 9 1.5 9H46.5C47.3284 9 48 9.67157 48 10.5C48 11.3284 47.3284 12 46.5 12H1.5C0.671573 12 0 11.3284 0 10.5Z" fill="#2F57E2"/>
<path fill-rule="evenodd" clip-rule="evenodd" d="M7 19C7 17.3431 8.34315 16 10 16H19C20.6569 16 22 17.3431 22 19V32C22 33.6569 20.6569 35 19 35H10C8.34315 35 7 33.6569 7 32V19ZM19 19H10V32H19V19Z" fill="#2F57E2"/>
<path fill-rule="evenodd" clip-rule="evenodd" d="M26 17.5C26 16.6716 26.6716 16 27.5 16H39.5C40.3284 16 41 16.6716 41 17.5C41 18.3284 40.3284 19 39.5 19H27.5C26.6716 19 26 18.3284 26 17.5Z" fill="#2F57E2"/>
</g>
<defs>
<clipPath id="clip0_27_366">
<rect width="48" height="48" fill="white"/>
</clipPath>
</defs>
</svg>
