<svg width="52" height="52" viewBox="0 0 52 52" fill="none" xmlns="http://www.w3.org/2000/svg">
<path d="M51.1666 26C51.1666 25.1716 50.4951 24.5 49.6666 24.5C48.8382 24.5 48.1666 25.1716 48.1666 26H51.1666ZM3.16663 26C3.16663 25.1716 2.49505 24.5 1.66663 24.5C0.838199 24.5 0.166626 25.1716 0.166626 26H3.16663ZM48.1666 9.2C48.1666 9.46689 47.9798 10.0222 46.9128 10.7791C45.8847 11.5083 44.2997 12.2264 42.2062 12.8544C38.0381 14.1048 32.1901 14.9 25.6666 14.9V17.9C32.398 17.9 38.55 17.0834 43.0682 15.7279C45.3178 15.053 47.2475 14.2196 48.6484 13.2261C50.0103 12.2601 51.1666 10.9213 51.1666 9.2H48.1666ZM25.6666 14.9C19.1431 14.9 13.2951 14.1048 9.12709 12.8544C7.03351 12.2264 5.44855 11.5083 4.42046 10.7791C3.35341 10.0222 3.16663 9.46689 3.16663 9.2H0.166626C0.166626 10.9213 1.32299 12.2601 2.68487 13.2261C4.08571 14.2196 6.01547 15.053 8.26504 15.7279C12.7833 17.0834 18.9353 17.9 25.6666 17.9V14.9ZM3.16663 9.2C3.16663 8.93311 3.35341 8.37776 4.42046 7.62093C5.44855 6.89173 7.03351 6.17364 9.12709 5.54557C13.2951 4.29516 19.1431 3.5 25.6666 3.5V0.5C18.9353 0.5 12.7833 1.31662 8.26504 2.67209C6.01547 3.34696 4.08571 4.18035 2.68487 5.17394C1.32299 6.1399 0.166626 7.47867 0.166626 9.2H3.16663ZM25.6666 3.5C32.1901 3.5 38.0381 4.29516 42.2062 5.54557C44.2997 6.17364 45.8847 6.89173 46.9128 7.62093C47.9798 8.37776 48.1666 8.93311 48.1666 9.2H51.1666C51.1666 7.47867 50.0103 6.1399 48.6484 5.17394C47.2475 4.18035 45.3178 3.34696 43.0682 2.67209C38.55 1.31662 32.398 0.5 25.6666 0.5V3.5ZM48.1666 26C48.1666 26.2669 47.9798 26.8222 46.9128 27.5791C45.8847 28.3083 44.2997 29.0264 42.2062 29.6544C38.0381 30.9048 32.1901 31.7 25.6666 31.7V34.7C32.398 34.7 38.55 33.8834 43.0682 32.5279C45.3178 31.853 47.2475 31.0196 48.6484 30.0261C50.0103 29.0601 51.1666 27.7213 51.1666 26H48.1666ZM25.6666 31.7C19.1431 31.7 13.2951 30.9048 9.12709 29.6544C7.03351 29.0264 5.44855 28.3083 4.42046 27.5791C3.35341 26.8222 3.16663 26.2669 3.16663 26H0.166626C0.166626 27.7213 1.32299 29.0601 2.68487 30.0261C4.08571 31.0196 6.01547 31.853 8.26504 32.5279C12.7833 33.8834 18.9353 34.7 25.6666 34.7V31.7ZM48.1666 42.8C48.1666 43.0669 47.9798 43.6222 46.9128 44.3791C45.8847 45.1083 44.2997 45.8264 42.2062 46.4544C38.0381 47.7048 32.1901 48.5 25.6666 48.5V51.5C32.398 51.5 38.55 50.6834 43.0682 49.3279C45.3178 48.653 47.2475 47.8196 48.6484 46.8261C50.0103 45.8601 51.1666 44.5213 51.1666 42.8H48.1666ZM25.6666 48.5C19.1431 48.5 13.2951 47.7048 9.12709 46.4544C7.03351 45.8264 5.44855 45.1083 4.42046 44.3791C3.35341 43.6222 3.16663 43.0669 3.16663 42.8H0.166626C0.166626 44.5213 1.32299 45.8601 2.68487 46.8261C4.08571 47.8196 6.01547 48.653 8.26504 49.3279C12.7833 50.6834 18.9353 51.5 25.6666 51.5V48.5ZM0.166626 9.2V42.8H3.16663V9.2H0.166626ZM48.1666 9.2V42.8H51.1666V9.2H48.1666Z" fill="#2F57E2"/>
</svg>
