<svg width="49" height="48" viewBox="0 0 49 48" fill="none" xmlns="http://www.w3.org/2000/svg">
<g clip-path="url(#clip0_531_51614)">
<path d="M19.3334 18.78C19.7312 18.78 20.1127 18.622 20.394 18.3407C20.6753 18.0594 20.8334 17.6778 20.8334 17.28V15C20.8334 14.6022 20.6753 14.2206 20.394 13.9393C20.1127 13.658 19.7312 13.5 19.3334 13.5C18.9355 13.5 18.554 13.658 18.2727 13.9393C17.9914 14.2206 17.8334 14.6022 17.8334 15V17.28C17.8334 17.6778 17.9914 18.0594 18.2727 18.3407C18.554 18.622 18.9355 18.78 19.3334 18.78Z" fill="white"/>
<path d="M30.8334 17.28V15C30.8334 14.6022 30.6753 14.2206 30.394 13.9393C30.1127 13.658 29.7312 13.5 29.3334 13.5C28.9355 13.5 28.554 13.658 28.2727 13.9393C27.9914 14.2206 27.8334 14.6022 27.8334 15V17.28C27.8334 17.6778 27.9914 18.0594 28.2727 18.3407C28.554 18.622 28.9355 18.78 29.3334 18.78C29.7312 18.78 30.1127 18.622 30.394 18.3407C30.6753 18.0594 30.8334 17.6778 30.8334 17.28Z" fill="white"/>
<path d="M15.7133 22.72C15.4324 23.0012 15.2747 23.3825 15.2747 23.78C15.2747 24.1775 15.4324 24.5587 15.7133 24.84C16.8741 26.0011 18.2522 26.9221 19.769 27.5505C21.2858 28.1789 22.9115 28.5023 24.5533 28.5023C26.1951 28.5023 27.8209 28.1789 29.3376 27.5505C30.8544 26.9221 32.2326 26.0011 33.3933 24.84C33.6583 24.5556 33.8025 24.1795 33.7957 23.7909C33.7888 23.4023 33.6314 23.0316 33.3566 22.7567C33.0818 22.4819 32.711 22.3245 32.3224 22.3176C31.9338 22.3108 31.5577 22.455 31.2733 22.72C29.4889 24.4982 27.0725 25.4967 24.5533 25.4967C22.0342 25.4967 19.6177 24.4982 17.8333 22.72C17.5521 22.4391 17.1708 22.2813 16.7733 22.2813C16.3758 22.2813 15.9946 22.4391 15.7133 22.72Z" fill="white"/>
<path d="M48.3334 36.5C48.3334 36.2348 48.228 35.9804 48.0405 35.7929C47.8529 35.6054 47.5986 35.5 47.3334 35.5H30.7934C30.6488 35.505 30.5068 35.5395 30.3761 35.6014C30.2454 35.6633 30.1288 35.7513 30.0334 35.86L28.1334 38.14C28.038 38.2487 27.9213 38.3367 27.7906 38.3986C27.6599 38.4605 27.5179 38.495 27.3734 38.5H21.3734C21.2288 38.495 21.0868 38.4605 20.9561 38.3986C20.8254 38.3367 20.7088 38.2487 20.6134 38.14L18.7134 35.86C18.618 35.7513 18.5013 35.6633 18.3706 35.6014C18.2399 35.5395 18.0979 35.505 17.9534 35.5H1.33337C1.06816 35.5 0.813804 35.6054 0.626267 35.7929C0.438731 35.9804 0.333374 36.2348 0.333374 36.5L0.333374 39.5C0.333374 40.2956 0.649445 41.0587 1.21205 41.6213C1.77466 42.1839 2.53772 42.5 3.33337 42.5H45.3334C46.129 42.5 46.8921 42.1839 47.4547 41.6213C48.0173 41.0587 48.3334 40.2956 48.3334 39.5V36.5Z" fill="white"/>
<path d="M7.33337 32.5C7.86381 32.5 8.37251 32.2893 8.74759 31.9142C9.12266 31.5391 9.33337 31.0304 9.33337 30.5V11.5C9.33337 10.9696 9.54409 10.4609 9.91916 10.0858C10.2942 9.71071 10.8029 9.5 11.3334 9.5H37.3334C37.8638 9.5 38.3725 9.71071 38.7476 10.0858C39.1227 10.4609 39.3334 10.9696 39.3334 11.5V30.5C39.3334 31.0304 39.5441 31.5391 39.9192 31.9142C40.2942 32.2893 40.8029 32.5 41.3334 32.5C41.8638 32.5 42.3725 32.2893 42.7476 31.9142C43.1227 31.5391 43.3334 31.0304 43.3334 30.5V11.5C43.3334 9.9087 42.7012 8.38258 41.576 7.25736C40.4508 6.13214 38.9247 5.5 37.3334 5.5H11.3334C9.74207 5.5 8.21595 6.13214 7.09073 7.25736C5.96552 8.38258 5.33337 9.9087 5.33337 11.5V30.5C5.33337 31.0304 5.54409 31.5391 5.91916 31.9142C6.29423 32.2893 6.80294 32.5 7.33337 32.5Z" fill="white"/>
</g>
<defs>
<clipPath id="clip0_531_51614">
<rect width="48" height="48" fill="white" transform="translate(0.333374)"/>
</clipPath>
</defs>
</svg>
