<svg width="25" height="24" viewBox="0 0 25 24" fill="none" xmlns="http://www.w3.org/2000/svg">
<path d="M3 1V5M5 3H1M4 19V23M6 21H2M9.51817 10.8446L6.89427 11.5156C6.39278 11.6438 6.39277 12.3562 6.89427 12.4844L9.51816 13.1554C11.6425 13.6987 13.3013 15.3575 13.8446 17.4818L14.5156 20.1057C14.6438 20.6072 15.3562 20.6072 15.4844 20.1057L16.1554 17.4818C16.6987 15.3575 18.3575 13.6987 20.4818 13.1554L23.1057 12.4844C23.6072 12.3562 23.6072 11.6438 23.1057 11.5156L20.4818 10.8446C18.3575 10.3013 16.6987 8.64252 16.1554 6.51817L15.4844 3.89427C15.3562 3.39278 14.6438 3.39277 14.5156 3.89427L13.8446 6.51816C13.3013 8.64252 11.6425 10.3013 9.51817 10.8446Z" stroke="#2F57E2" stroke-width="2" stroke-linecap="round" stroke-linejoin="round"/>
</svg>
