<svg width="49" height="48" viewBox="0 0 49 48" fill="none" xmlns="http://www.w3.org/2000/svg">
<g clip-path="url(#clip0_712_39208)">
<path d="M36.3617 22.612C36.5524 22.302 36.6569 21.9468 36.6646 21.583C36.6722 21.2191 36.5826 20.8598 36.4051 20.5421C36.2276 20.2244 35.9686 19.9598 35.6548 19.7756C35.3409 19.5913 34.9836 19.4941 34.6197 19.494H27.6657V1.49402L12.9697 25.378C12.7788 25.6878 12.6742 26.043 12.6665 26.4068C12.6588 26.7706 12.7483 27.1298 12.9259 27.4474C13.1035 27.765 13.3626 28.0295 13.6765 28.2135C13.9905 28.3975 14.3478 28.4943 14.7117 28.494H21.6657V46.494L36.3617 22.612Z" stroke="#2F57E2" stroke-width="3" stroke-linecap="round" stroke-linejoin="round"/>
</g>
<defs>
<clipPath id="clip0_712_39208">
<rect width="48" height="48" fill="white" transform="translate(0.666016)"/>
</clipPath>
</defs>
</svg>
