<svg width="49" height="48" viewBox="0 0 49 48" fill="none" xmlns="http://www.w3.org/2000/svg">
<g clip-path="url(#clip0_712_39172)">
<path d="M14.4263 10.24L6.40625 18.26" stroke="#2F57E2" stroke-width="3" stroke-linecap="round" stroke-linejoin="round"/>
<path d="M29.2863 12.6399L19.9463 10.1599" stroke="#2F57E2" stroke-width="3" stroke-linecap="round" stroke-linejoin="round"/>
<path d="M41.4461 5.78003L34.2861 11.38" stroke="#2F57E2" stroke-width="3" stroke-linecap="round" stroke-linejoin="round"/>
<path d="M17.166 12C18.8229 12 20.166 10.6569 20.166 9C20.166 7.34315 18.8229 6 17.166 6C15.5092 6 14.166 7.34315 14.166 9C14.166 10.6569 15.5092 12 17.166 12Z" stroke="#2F57E2" stroke-width="3" stroke-linecap="round" stroke-linejoin="round"/>
<path d="M44.166 7.5C45.8229 7.5 47.166 6.15685 47.166 4.5C47.166 2.84315 45.8229 1.5 44.166 1.5C42.5092 1.5 41.166 2.84315 41.166 4.5C41.166 6.15685 42.5092 7.5 44.166 7.5Z" stroke="#2F57E2" stroke-width="3" stroke-linecap="round" stroke-linejoin="round"/>
<path d="M32.166 16.5C33.8229 16.5 35.166 15.1569 35.166 13.5C35.166 11.8431 33.8229 10.5 32.166 10.5C30.5092 10.5 29.166 11.8431 29.166 13.5C29.166 15.1569 30.5092 16.5 32.166 16.5Z" stroke="#2F57E2" stroke-width="3" stroke-linecap="round" stroke-linejoin="round"/>
<path d="M5.16602 24C6.82287 24 8.16602 22.6569 8.16602 21C8.16602 19.3431 6.82287 18 5.16602 18C3.50916 18 2.16602 19.3431 2.16602 21C2.16602 22.6569 3.50916 24 5.16602 24Z" stroke="#2F57E2" stroke-width="3" stroke-linecap="round" stroke-linejoin="round"/>
<path d="M2.16602 46.5H47.166" stroke="#2F57E2" stroke-width="3" stroke-linecap="round" stroke-linejoin="round"/>
<path d="M12.666 35.5H6.66602C6.2698 35.5052 5.89127 35.6649 5.61108 35.9451C5.33089 36.2253 5.1712 36.6038 5.16602 37V46.5H14.166V37C14.166 36.6022 14.008 36.2206 13.7267 35.9393C13.4454 35.658 13.0638 35.5 12.666 35.5Z" stroke="#2F57E2" stroke-width="3" stroke-linecap="round" stroke-linejoin="round"/>
<path d="M27.666 21.5H21.666C21.2698 21.5052 20.8913 21.6649 20.6111 21.9451C20.3309 22.2253 20.1712 22.6038 20.166 23V46.5H29.166V23C29.166 22.6022 29.008 22.2206 28.7267 21.9393C28.4454 21.658 28.0638 21.5 27.666 21.5Z" stroke="#2F57E2" stroke-width="3" stroke-linecap="round" stroke-linejoin="round"/>
<path d="M42.666 29.5H36.666C36.2698 29.5052 35.8913 29.6649 35.6111 29.9451C35.3309 30.2253 35.1712 30.6038 35.166 31V46.5H44.166V31C44.166 30.6022 44.008 30.2206 43.7267 29.9393C43.4454 29.658 43.0638 29.5 42.666 29.5V29.5Z" stroke="#2F57E2" stroke-width="3" stroke-linecap="round" stroke-linejoin="round"/>
</g>
<defs>
<clipPath id="clip0_712_39172">
<rect width="48" height="48" fill="white" transform="translate(0.666016)"/>
</clipPath>
</defs>
</svg>
