<svg width="24" height="24" viewBox="0 0 24 24" fill="none" xmlns="http://www.w3.org/2000/svg">
<g clip-path="url(#clip0_712_10058)">
<path d="M8.31035 10.4199L7.26035 9.41993C6.4088 9.83148 5.45016 9.96744 4.51776 9.8089C3.58535 9.65035 2.72552 9.20519 2.05785 8.53532C1.39018 7.86545 0.947846 7.00416 0.792371 6.07124C0.636896 5.13831 0.776006 4.18013 1.19035 3.32993L2.62035 4.74993C2.90414 5.03371 3.28903 5.19314 3.69035 5.19314C3.88907 5.19314 4.08584 5.154 4.26943 5.07796C4.45302 5.00191 4.61984 4.89045 4.76035 4.74993C4.90087 4.60942 5.01233 4.4426 5.08838 4.25901C5.16442 4.07542 5.20356 3.87865 5.20356 3.67993C5.20356 3.48122 5.16442 3.28444 5.08838 3.10085C5.01233 2.91726 4.90087 2.75045 4.76035 2.60993L3.34035 1.18993C4.1904 0.787143 5.14404 0.656472 6.0711 0.815756C6.99817 0.975039 7.8535 1.41652 8.52035 2.07993" stroke="#2F57E2" stroke-width="2" stroke-linecap="round" stroke-linejoin="round"/>
<path d="M15.8199 13.6399L16.7399 14.5499C17.5874 14.1466 18.5388 14.0153 19.4638 14.1739C20.3889 14.3325 21.2422 14.7733 21.9069 15.4359C22.5716 16.0984 23.0152 16.9503 23.1769 17.8748C23.3385 18.7992 23.2104 19.7511 22.8099 20.5999L21.3799 19.1799C21.0961 18.8961 20.7112 18.7367 20.3099 18.7367C19.9086 18.7367 19.5237 18.8961 19.2399 19.1799C18.9561 19.4637 18.7967 19.8486 18.7967 20.2499C18.7967 20.6512 18.9561 21.0361 19.2399 21.3199L20.6599 22.7399C19.8099 23.1427 18.8562 23.2734 17.9292 23.1141C17.0021 22.9548 16.1468 22.5133 15.4799 21.8499C14.816 21.1874 14.3746 20.3348 14.217 19.4102C14.0593 18.4857 14.1931 17.535 14.5999 16.6899L13.6699 15.7699" stroke="#2F57E2" stroke-width="2" stroke-linecap="round" stroke-linejoin="round"/>
<path d="M1.44026 22.5899C1.02257 22.1702 0.788086 21.6021 0.788086 21.0099C0.788086 20.4178 1.02257 19.8497 1.44026 19.4299L6.14026 14.7499C6.2092 14.6792 6.29162 14.6229 6.38264 14.5845C6.47367 14.5461 6.57146 14.5264 6.67026 14.5264C6.76905 14.5264 6.86684 14.5461 6.95787 14.5845C7.0489 14.6229 7.13131 14.6792 7.20026 14.7499L9.32026 16.8599C9.3895 16.9287 9.44445 17.0105 9.48194 17.1006C9.51944 17.1907 9.53874 17.2873 9.53874 17.3849C9.53874 17.4825 9.51944 17.5792 9.48194 17.6693C9.44445 17.7594 9.3895 17.8412 9.32026 17.9099L4.62026 22.5899C4.19838 23.0113 3.62651 23.248 3.03026 23.248C2.43401 23.248 1.86213 23.0113 1.44026 22.5899V22.5899Z" stroke="#2F57E2" stroke-width="2" stroke-linecap="round" stroke-linejoin="round"/>
<path d="M16.5907 1.18993L22.8107 7.38993C23.0886 7.67076 23.2444 8.04987 23.2444 8.44493C23.2444 8.83999 23.0886 9.2191 22.8107 9.49993L20.6907 11.6099C20.4082 11.8884 20.0274 12.0445 19.6307 12.0445C19.234 12.0445 18.8532 11.8884 18.5707 11.6099L12.3507 5.40993C12.0728 5.1291 11.917 4.74999 11.917 4.35493C11.917 3.95987 12.0728 3.58076 12.3507 3.29993L14.4707 1.18993C14.6093 1.04964 14.7743 0.938257 14.9563 0.862236C15.1383 0.786215 15.3335 0.74707 15.5307 0.74707C15.7279 0.74707 15.9231 0.786215 16.1051 0.862236C16.2871 0.938257 16.4521 1.04964 16.5907 1.18993Z" stroke="#2F57E2" stroke-width="2" stroke-linecap="round" stroke-linejoin="round"/>
<path d="M15.5302 8.57983L8.16016 15.6998" stroke="#2F57E2" stroke-width="2" stroke-linecap="round" stroke-linejoin="round"/>
</g>
<defs>
<clipPath id="clip0_712_10058">
<rect width="24" height="24" fill="white"/>
</clipPath>
</defs>
</svg>
